<?xml version="1.0" encoding="utf-8"?>
<!-- Generator: Adobe Illustrator 25.2.0, SVG Export Plug-In . SVG Version: 6.00 Build 0)  -->
<svg version="1.1"
	 id="svg10" xmlns:cc="http://creativecommons.org/ns#" xmlns:dc="http://purl.org/dc/elements/1.1/" xmlns:rdf="http://www.w3.org/1999/02/22-rdf-syntax-ns#" xmlns:svg="http://www.w3.org/2000/svg"
	 xmlns="http://www.w3.org/2000/svg" xmlns:xlink="http://www.w3.org/1999/xlink" x="0px" y="0px" viewBox="0 0 100 100"
	 style="enable-background:new 0 0 100 100;" xml:space="preserve">
<style type="text/css">
	.st0{fill:#191919;}
</style>
<g>
	<path class="st0" d="M42.9,47.5c1.9-0.9,3.5-2.2,4.5-3.7c1.1-1.4,1.6-3.4,1.6-5.6c0-1.9-0.3-3.7-1-5.1c-0.7-1.4-1.6-2.6-2.9-3.4
		c-1.3-0.8-2.7-1.4-4.5-1.8c-1.8-0.5-3.7-0.6-5.8-0.6H14v44.2h21.4c1.9,0,3.8-0.3,5.8-0.8c1.9-0.5,3.7-1.3,5.1-2.2
		c1.4-0.9,2.7-2.4,3.5-4s1.3-3.5,1.3-5.8c0-2.7-0.8-5.1-2.1-7S45.7,48.3,42.9,47.5z M23.7,34.9H33c0.9,0,1.8,0,2.6,0.2
		s1.4,0.5,2.1,0.8c0.7,0.5,1.1,1,1.4,1.6c0.3,0.6,0.5,1.6,0.5,2.6c0,1.8-0.5,3.2-1.6,4s-2.6,1.3-4.3,1.3h-9.9V34.9H23.7z M40.7,61.1
		c-0.5,0.8-1,1.3-1.6,1.8s-1.4,0.8-2.2,1s-1.8,0.3-2.7,0.3l0,0H23.7V51.8h10.5c2.1,0,3.8,0.5,5.1,1.4c1.3,1.1,1.9,2.7,1.9,5
		C41.3,59.4,41,60.3,40.7,61.1z"/>
	<rect x="61" y="30.4" class="st0" width="17.9" height="4.3"/>
	<path class="st0" d="M85.6,50.7c-0.7-2.2-1.6-4.3-2.9-6.1c-1.3-1.9-2.9-3.2-5-4.3s-4.5-1.6-7.2-1.6c-2.6,0-4.6,0.5-6.7,1.3
		c-1.9,0.8-3.7,2.1-5.1,3.5c-1.4,1.6-2.6,3.4-3.4,5.4c-0.8,2.1-1.1,4.3-1.1,6.7c0,2.6,0.3,4.8,1.1,6.9c0.7,2.1,1.8,3.8,3.2,5.3
		c1.4,1.6,3,2.7,5.1,3.5s4.3,1.3,6.9,1.3c3.7,0,6.7-0.9,9.3-2.6c2.6-1.8,4.5-4.5,5.8-8.3h-7.8c-0.3,1-1.1,1.9-2.4,2.9
		c-1.3,0.8-2.9,1.3-4.6,1.3c-2.6,0-4.5-0.6-5.8-1.9c-1.3-1.3-2.2-3.7-2.2-6.3H86C86.1,55.2,86,52.9,85.6,50.7z M62.9,52.3
		c0-0.6,0.2-1.3,0.3-2.1c0.2-0.8,0.5-1.6,1.1-2.2c0.6-0.6,1.3-1.3,2.2-1.8s2.1-0.8,3.5-0.8c2.1,0,3.8,0.6,5,1.8
		c1.1,1.1,1.9,2.7,2.2,5.1H62.9z"/>
</g>
</svg>
