<?xml version="1.0" encoding="utf-8"?>
<!-- Generator: Adobe Illustrator 25.2.0, SVG Export Plug-In . SVG Version: 6.00 Build 0)  -->
<svg version="1.1" id="Camada_1" xmlns="http://www.w3.org/2000/svg" xmlns:xlink="http://www.w3.org/1999/xlink" x="0px" y="0px"
	 viewBox="0 0 100 100" style="enable-background:new 0 0 100 100;" xml:space="preserve">
<style type="text/css">
	.st0{fill:#191919;}
</style>
<path class="st0" d="M40.3,28.2c-6.7,0-12.1,5.4-12.1,12.1v19.3c0,6.7,5.4,12.1,12.1,12.1h19.3c6.7,0,12.1-5.4,12.1-12.1V40.3
	c0-6.7-5.4-12.1-12.1-12.1H40.3z M40.3,33.1h19.3c4,0,7.2,3.3,7.2,7.2v19.3c0,4-3.3,7.2-7.2,7.2H40.3c-4,0-7.2-3.3-7.2-7.2V40.3
	C33.1,36.3,36.3,33.1,40.3,33.1z M62.1,35.5c-1.3,0-2.4,1.1-2.4,2.4c0,1.3,1.1,2.4,2.4,2.4c1.3,0,2.4-1.1,2.4-2.4
	C64.5,36.6,63.4,35.5,62.1,35.5z M50,37.9c-6.7,0-12.1,5.4-12.1,12.1S43.3,62.1,50,62.1S62.1,56.7,62.1,50S56.7,37.9,50,37.9z
	 M50,42.8c4,0,7.2,3.3,7.2,7.2S54,57.2,50,57.2S42.8,54,42.8,50S46,42.8,50,42.8z"/>
</svg>
