<?xml version="1.0" encoding="utf-8"?>
<!-- Generator: Adobe Illustrator 25.2.0, SVG Export Plug-In . SVG Version: 6.00 Build 0)  -->
<svg version="1.1" id="Camada_1" xmlns="http://www.w3.org/2000/svg" xmlns:xlink="http://www.w3.org/1999/xlink" x="0px" y="0px"
	 viewBox="0 0 100 100" style="enable-background:new 0 0 100 100;" xml:space="preserve">
<style type="text/css">
	.st0{fill:#191919;}
</style>
<path class="st0" d="M27.4,40.6h9.4v32.1h-9.4V40.6z M32,36.8L32,36.8c-2.9,0-4.7-2.1-4.7-4.7c0-2.7,1.9-4.7,4.7-4.7
	c2.9,0,4.6,2,4.7,4.7C36.8,34.7,35,36.8,32,36.8z M72.7,72.7h-9.4V55.5c0-4.1-2.3-7-6-7c-2.8,0-4.4,1.9-5.1,3.8
	c-0.3,0.7-0.2,2.5-0.2,3.4v17h-9.4V40.6h9.4v4.9c1.4-2.1,3.5-4.9,8.9-4.9c6.8,0,11.8,4.2,11.8,13.7L72.7,72.7L72.7,72.7z"/>
</svg>
