<?xml version="1.0" encoding="utf-8"?>
<!-- Generator: Adobe Illustrator 25.2.0, SVG Export Plug-In . SVG Version: 6.00 Build 0)  -->
<svg version="1.1" id="Layer_1" xmlns="http://www.w3.org/2000/svg" xmlns:xlink="http://www.w3.org/1999/xlink" x="0px" y="0px"
	 viewBox="0 0 100 100" style="enable-background:new 0 0 100 100;" xml:space="preserve">
<style type="text/css">
	.st0{fill:#191919;}
</style>
<g id="XMLID_826_">
	<g>
		<path id="XMLID_11_" class="st0" d="M76.4,32.6c-0.9,0.4-1.8,0.7-2.7,1c1.1-1.2,1.9-2.7,2.4-4.2c0.1-0.4,0-0.7-0.3-1
			c-0.3-0.2-0.7-0.3-1-0.1c-1.9,1.1-4,2-6.2,2.5c-2.2-2.2-5.2-3.4-8.3-3.4c-6.5,0-11.9,5.3-11.9,11.9c0,0.5,0,1,0.1,1.5
			c-8.1-0.7-15.7-4.7-20.9-11.1c-0.2-0.2-0.5-0.3-0.8-0.3s-0.6,0.2-0.7,0.4c-1.1,1.8-1.6,3.9-1.6,6c0,2.9,1,5.6,2.8,7.7
			c-0.5-0.2-1.1-0.4-1.6-0.7c-0.3-0.2-0.6-0.1-0.9,0c-0.3,0.2-0.4,0.4-0.4,0.8c0,0.1,0,0.1,0,0.2c0,4.3,2.3,8.1,5.8,10.2
			c-0.3,0-0.6-0.1-0.9-0.1c-0.3-0.1-0.6,0-0.8,0.3c-0.2,0.2-0.3,0.6-0.2,0.9c1.3,4.1,4.6,7,8.7,8c-3.4,2.1-7.2,3.2-11.2,3.2
			c-0.8,0-1.7,0-2.5-0.1c-0.4,0-0.8,0.2-0.9,0.6s0,0.8,0.4,1.1C28,71.2,34,73,40.1,73c12.1,0,19.6-5.7,23.9-10.5
			c5.3-6,8.3-13.8,8.3-21.6c0-0.3,0-0.7,0-1c2.1-1.6,3.9-3.5,5.3-5.6c0.2-0.3,0.2-0.8-0.1-1.1C77.2,32.5,76.8,32.4,76.4,32.6z"/>
	</g>
</g>
</svg>
