<?xml version="1.0" encoding="UTF-8" standalone="no"?><!DOCTYPE svg PUBLIC "-//W3C//DTD SVG 1.1//EN" "http://www.w3.org/Graphics/SVG/1.1/DTD/svg11.dtd"><svg width="100%" height="100%" viewBox="0 0 232 60" version="1.1" xmlns="http://www.w3.org/2000/svg" xmlns:xlink="http://www.w3.org/1999/xlink" xml:space="preserve" xmlns:serif="http://www.serif.com/" style="fill-rule:evenodd;clip-rule:evenodd;stroke-linejoin:round;stroke-miterlimit:2;"><g><g><path d="M103.507,41.627c-0.392,1.498 -1.002,2.73 -1.831,3.698c-0.83,0.968 -2.004,1.451 -3.525,1.451c-1.567,0 -2.833,-0.587 -3.8,-1.762c-0.968,-1.175 -1.659,-3.076 -2.073,-5.701c-0.207,-1.313 -0.363,-2.851 -0.466,-4.613c-0.035,-0.588 -0.063,-1.2 -0.087,-1.837c0.045,-2.993 0.045,-6.331 0.052,-9.234c0.04,-0.78 0.091,-1.519 0.152,-2.22c0.242,-2.804 0.646,-5.001 1.213,-6.595c0.99,-2.787 2.591,-4.181 4.803,-4.181c1.566,0 2.787,0.577 3.663,1.728c0.874,1.152 1.509,2.557 1.9,4.215c0.36,1.526 0.587,3.012 0.695,4.459l9.922,-3.736c-0.145,-3.292 -0.861,-4.707 -2.142,-7.516c-1.284,-2.808 -3.087,-5.072 -5.411,-6.791c-2.324,-1.718 -5.205,-2.578 -8.643,-2.578c-6.15,0 -10.713,2.422 -13.691,7.263c-2.978,4.842 -4.466,11.864 -4.466,21.063c0,5.568 0.629,10.483 1.888,14.744c1.259,4.261 3.22,7.578 5.883,9.95c2.662,2.373 6.076,3.559 10.241,3.559c3.583,0 6.536,-0.871 8.861,-2.615c2.324,-1.743 4.104,-4.031 5.339,-6.864c1.234,-2.833 1.948,-4.733 2.142,-7.881l-9.926,-2.176c-0.109,1.418 -0.336,2.808 -0.69,4.168" style="fill:#ccc;fill-rule:nonzero;"/></g><g><path d="M73.936,1.82l-12.883,0c-5.898,0 -10.496,1.182 -13.786,3.869c-3.29,2.687 -4.933,6.851 -4.933,12.661c0,3.097 0.64,5.79 1.921,8.157c1.281,2.372 3.133,4.265 5.552,5.714l-9.651,21.332l9.793,3.746l9.293,-21.731l3.792,0l0,20.97l10.902,0l0,-54.717Z" style="fill:#ccc;fill-rule:nonzero;"/></g><g><path d="M149.2,10.361l-9.576,0l0,48.884l-11.318,0l0,-48.884l-11.457,0l0,-9.027l33.425,0l-1.074,9.027Z" style="fill:#ccc;fill-rule:nonzero;"/></g><g><path d="M229.656,52.462c-1.485,2.459 -3.548,4.333 -6.19,5.612c-2.642,1.285 -5.707,1.924 -9.194,1.924c-3.283,0 -6.23,-0.628 -8.844,-1.885c-2.614,-1.257 -4.666,-3.176 -6.151,-5.768c-1.49,-2.586 -2.236,-5.885 -2.236,-9.884l10.157,-1.151c0,2.82 0.628,5.101 1.885,6.842c1.258,1.746 3.065,2.62 5.424,2.62c1.946,0 3.41,-0.579 4.383,-1.736c0.974,-1.152 1.463,-2.703 1.463,-4.65c0,-2.102 -0.54,-3.743 -1.618,-4.922c-1.074,-1.18 -2.459,-2.258 -4.15,-3.232l-7.003,-4.077c-2.714,-1.591 -5.011,-3.704 -6.885,-6.346c-1.869,-2.642 -2.803,-5.835 -2.803,-9.578c0,-3.075 0.678,-5.834 2.035,-8.27c1.357,-2.437 3.332,-4.366 5.924,-5.807c2.586,-1.435 5.679,-2.152 9.267,-2.152c4.823,0 8.704,1.385 11.658,4.154c2.948,2.77 4.472,6.92 4.578,12.46l-10.156,2.23c0,-6.407 -2.103,-9.611 -6.307,-9.611c-1.741,0 -3.115,0.534 -4.116,1.613c-1.002,1.079 -1.502,2.564 -1.502,4.461c0,1.846 0.478,3.36 1.424,4.538c0.951,1.18 2.298,2.281 4.038,3.31l6.926,4.155c3.181,1.897 5.678,4.138 7.497,6.73c1.819,2.587 2.737,5.779 2.737,9.572c0,3.438 -0.745,6.386 -2.236,8.85" style="fill:#ccc;fill-rule:nonzero;"/></g><g><path d="M153.571,21.676l0.7,-0.087l-0.381,-0.18l-1.988,-0.869l-0.356,-2.642l6.599,-1.454l2.721,1.765l12.472,-1.094l3.394,2.377l12.881,-0.876l0.336,1.451l-0.391,3.908l-1.322,1.323l1.358,1.35l-4.652,5.52l-5.065,2.948l-9.887,12.129l1.272,7.467l-0.899,2.471c0.617,0.045 1.24,0.065 1.866,0.055c0.014,-0.05 0.022,-0.078 0.022,-0.078l0.048,0.076c0.387,-0.007 0.776,-0.024 1.166,-0.052c13.285,-0.969 23.122,-13.978 22.027,-28.988c-1.088,-14.91 -12.709,-26.353 -25.994,-25.384c-11.786,0.86 -20.858,11.197 -21.995,23.929l6.066,-5.067Z" style="fill:#ccc;fill-rule:nonzero;"/></g><g><path d="M26.197,56.997l-2.32,-11.154l-11.687,0l-1.669,10.971l-10.522,0l11.105,-54.1l13.135,-1.684l12.627,55.125l-10.669,0.841Z" style="fill:#ccc;fill-rule:nonzero;"/></g></g></svg>