<?xml version="1.0" encoding="UTF-8" standalone="no"?>
<!DOCTYPE svg PUBLIC "-//W3C//DTD SVG 1.1//EN" "http://www.w3.org/Graphics/SVG/1.1/DTD/svg11.dtd">
<svg width="100%" height="100%" viewBox="0 0 237 71" version="1.1" xmlns="http://www.w3.org/2000/svg" xmlns:xlink="http://www.w3.org/1999/xlink" xml:space="preserve" xmlns:serif="http://www.serif.com/" style="fill-rule:evenodd;clip-rule:evenodd;stroke-linejoin:round;stroke-miterlimit:2;">
    <g transform="matrix(0.016665,0,0,0.016665,-9.484939,1.909453)">
        <g>
            <g transform="matrix(4.166667,0,0,4.166667,6909.830833,1158.485833)">
                <path d="M0,372.203C-5.642,393.777 -14.425,411.525 -26.367,425.456C-38.317,439.39 -55.229,446.35 -77.129,446.35C-99.694,446.35 -117.933,437.891 -131.857,420.978C-145.794,404.054 -155.75,376.684 -161.718,338.873C-164.698,319.963 -166.945,297.817 -168.434,272.443C-168.934,263.977 -169.348,255.16 -169.68,245.985C-169.034,202.878 -169.034,154.805 -168.934,113.003C-168.354,101.772 -167.627,91.134 -166.746,81.037C-163.259,40.661 -157.438,9.013 -149.282,-13.935C-135.018,-54.069 -111.973,-74.146 -80.117,-74.146C-57.563,-74.146 -39.984,-65.84 -27.368,-49.265C-14.777,-32.673 -5.642,-12.443 0,11.442C5.182,33.419 8.455,54.817 10.003,75.664L152.888,21.864C150.795,-25.543 140.491,-45.924 122.034,-86.374C103.547,-126.808 77.579,-159.415 44.104,-184.177C10.628,-208.915 -30.861,-221.306 -80.369,-221.306C-168.934,-221.306 -234.651,-186.43 -277.537,-116.706C-320.423,-46.972 -341.86,54.147 -341.86,186.625C-341.86,266.819 -332.805,337.6 -314.667,398.962C-296.541,460.329 -268.301,508.1 -229.943,542.255C-191.606,576.432 -142.439,593.509 -82.456,593.509C-30.861,593.509 11.676,580.963 45.151,555.855C78.621,530.755 104.248,497.806 122.034,457.009C139.811,416.215 150.088,388.849 152.888,343.516L9.942,312.181C8.368,332.603 5.106,352.626 0,372.203" style="fill:rgb(218,32,49);fill-rule:nonzero;"/>
            </g>
            <g transform="matrix(4.166667,0,0,4.166667,5135.416667,3649.635)">
                <path d="M0,-798.959L-185.529,-798.959C-270.472,-798.959 -336.685,-781.935 -384.07,-743.247C-431.457,-704.548 -455.109,-644.576 -455.109,-560.912C-455.109,-516.316 -445.887,-477.525 -427.449,-443.44C-409.004,-409.278 -382.331,-382.021 -347.487,-361.155L-486.472,-53.95L-345.44,0L-211.604,-312.959L-157,-312.959L-157,-10.959L0,-10.959L0,-798.959Z" style="fill:rgb(218,32,49);fill-rule:nonzero;"/>
            </g>
            <g transform="matrix(4.166667,0,0,4.166667,9651.705,3224.805833)">
                <path d="M0,-574L-137.909,-574L-137.909,130L-300.909,130L-300.909,-574L-465.909,-574L-465.909,-704L15.464,-704L0,-574Z" style="fill:rgb(218,32,49);fill-rule:nonzero;"/>
            </g>
            <g transform="matrix(4.166667,0,0,4.166667,14479.52875,663.661667)">
                <path d="M0,646.993C-21.389,682.399 -51.091,709.391 -89.147,727.813C-127.19,746.315 -171.331,755.528 -221.556,755.528C-268.83,755.528 -311.278,746.478 -348.929,728.378C-386.579,710.27 -416.13,682.64 -437.517,645.307C-458.981,608.061 -469.72,560.557 -469.72,502.962L-323.45,486.384C-323.45,526.992 -314.407,559.84 -296.302,584.914C-278.192,610.063 -252.163,622.639 -218.193,622.639C-190.163,622.639 -169.09,614.307 -155.076,597.643C-141.056,581.059 -134.006,558.714 -134.006,530.679C-134.006,500.405 -141.776,476.772 -157.31,459.794C-172.772,442.806 -192.727,427.27 -217.077,413.253L-317.93,354.537C-357.014,331.626 -390.102,301.188 -417.091,263.139C-444.013,225.09 -457.461,179.11 -457.461,125.195C-457.461,80.907 -447.69,41.181 -428.148,6.091C-408.608,-29.004 -380.161,-56.79 -342.839,-77.54C-305.598,-98.209 -261.055,-108.535 -209.379,-108.535C-139.928,-108.535 -84.024,-88.589 -41.491,-48.709C0.968,-8.812 22.915,50.945 24.437,130.726L-121.831,162.847C-121.831,70.573 -152.114,24.434 -212.665,24.434C-237.742,24.434 -257.527,32.126 -271.944,47.661C-286.372,63.206 -293.573,84.589 -293.573,111.905C-293.573,138.496 -286.683,160.287 -273.071,177.263C-259.373,194.251 -239.982,210.112 -214.919,224.93L-115.178,284.764C-69.362,312.077 -33.402,344.363 -7.21,381.688C18.987,418.941 32.206,464.913 32.206,519.543C32.206,569.048 21.47,611.507 0,646.993" style="fill:rgb(218,32,49);fill-rule:nonzero;"/>
            </g>
            <g transform="matrix(4.166667,0,0,4.166667,9914.025833,2456.685)">
                <path d="M0,-226.692L10.086,-227.947L4.604,-230.538L-24.029,-243.06L-29.155,-281.114L65.875,-302.047L105.065,-276.623L284.685,-292.38L333.568,-258.149L519.067,-270.768L523.904,-249.868L518.272,-193.581L499.239,-174.521L518.796,-155.075L451.805,-75.575L378.856,-33.115L236.473,141.562L254.788,249.091L241.847,284.679C250.739,285.331 259.701,285.609 268.724,285.476C268.924,284.757 269.045,284.358 269.045,284.358L269.737,285.453C275.316,285.351 280.913,285.105 286.535,284.697C477.856,270.737 619.526,83.39 603.759,-132.778C588.091,-347.499 420.725,-512.301 229.406,-498.344C59.675,-485.963 -70.977,-337.094 -87.354,-153.725L0,-226.692Z" style="fill:rgb(218,32,49);fill-rule:nonzero;"/>
            </g>
            <g transform="matrix(4.166667,0,0,4.166667,2270.817083,273.26)">
                <path d="M0,805.999L-33.405,645.371L-201.711,645.371L-225.749,803.371L-377.28,803.371L-217.356,24.255L-28.19,0L153.653,793.881L0,805.999Z" style="fill:rgb(218,32,49);fill-rule:nonzero;"/>
            </g>
        </g>
    </g>
</svg>
